#N canvas 1439 30 464 480 10;
#X obj 150 8 inlet;
#X obj 190 46 env~;
#X obj 54 10 inlet~;
#X obj 24 45 t b b, f 15;
#X obj 24 185 switch~;
#X obj 24 104 delay 1 100 msec;
#X msg 111 71 0;
#X msg 24 126 1;
#X obj 190 80 expr if($f1 < -200 \, 0 \, 1);
#X obj 190 102 change;
#X obj 190 168 outlet;
#X connect 0 0 3 0;
#X connect 1 0 8 0;
#X connect 2 0 1 0;
#X connect 3 0 5 0;
#X connect 3 1 6 0;
#X connect 5 0 7 0;
#X connect 6 0 4 0;
#X connect 6 0 10 0;
#X connect 7 0 4 0;
#X connect 7 0 10 0;
#X connect 8 0 9 0;
#X connect 9 0 10 0;
