#N canvas 0 0 925 1132 10;
#X declare -path build;
#X declare -lib xlab/xlab;
#X obj 4 7 declare -path build;
#X obj 4 30 declare -lib xlab/xlab;
#X obj 44 126 saf.encoder~ 4 2;
#X obj 42 68 osc~ 440;
#X obj 42 90 *~ 0.2;
#X obj 9 216 saf.meter~ -width 8 -height 120 -frames 20 -inchs 1;
#X obj 44 148 saf.decoder~ 2 2;
#X obj 44 227 dac~, f 16;
#X msg 192 93 source 1 \$1 0;
#X obj 199 31 hsl 153 18 0 180 0 0 empty empty empty -2 -9 0 10 #fcfcfc #000000 #000000 0 1;
#X obj 236 66 nbx 5 16 -1e+37 1e+37 0 0 empty empty empty 0 -9 0 10 #fcfcfc #000000 #000000 0 256;
#X connect 2 0 6 0;
#X connect 2 1 6 1;
#X connect 2 2 6 2;
#X connect 2 3 6 3;
#X connect 2 4 6 4;
#X connect 2 5 6 5;
#X connect 2 6 6 6;
#X connect 2 7 6 7;
#X connect 2 8 6 8;
#X connect 3 0 4 0;
#X connect 4 0 2 0;
#X connect 6 0 5 0;
#X connect 6 0 7 0;
#X connect 6 1 7 1;
#X connect 8 0 2 0;
#X connect 9 0 8 0;
#X connect 9 0 10 0;
