#N canvas 483 292 474 226 12;
#X obj 16 7 osc~ 440;
#X obj 16 32 *~ 0.5;
#N canvas 483 31 474 223 (subpatch) 1;
#X obj 20 2 inlet~;
#X obj 20 130 outlet~;
#X obj 161 127 outlet~;
#X obj 249 132 block~ 1024;
#X obj 19 85 vstplugin~ -e compass_binauralVR.vst3 4 2;
#X connect 0 0 4 0;
#X connect 0 0 4 1;
#X connect 0 0 4 2;
#X connect 0 0 4 3;
#X connect 4 0 1 0;
#X connect 4 1 2 0;
#X restore 16 58 pd;
#X obj 16 83 dac~;
#X connect 0 0 1 0;
#X connect 1 0 2 0;
#X connect 2 0 3 0;
#X connect 2 1 3 1;
