#N canvas 1443 556 471 486 10;
#X obj 6 10 osc~ 440;
#X obj 6 155 dac~;
#X obj 6 98 vstplugin~ -e Fire.vst3 1 1;
#X msg 65 10 open -e Dragonfly_Hall_Reverb;
#X obj 261 10 py4pd -lib orchidea;
#N canvas 963 556 474 486 test 1;
#X obj 24 24 else/click;
#X obj 24 46 print;
#X connect 0 0 1 0;
#X restore 196 97 pd test;
#X connect 0 0 2 0;
#X connect 2 0 1 0;
#X connect 2 0 1 1;
#X connect 3 0 2 0;
