#N canvas 0 0 943 1005 12;
#X obj 14 244 outlet~;
#X obj 14 39 inlet~;
#X obj 294 244 outlet;
#X msg 85 106 vis 1;
#X obj 85 66 t b b, f 19;
#X msg 199 106 vis 0;
#X obj 14 215 vstplugin~ -e Dragonfly_Early_Reflections.vst3 1 1;
#X obj 85 39 else/click;
#X connect 1 0 6 0;
#X connect 3 0 6 0;
#X connect 4 0 3 0;
#X connect 4 1 5 0;
#X connect 5 0 6 0;
#X connect 6 0 0 0;
#X connect 6 1 2 0;
#X connect 7 0 4 0;
