#N canvas 0 0 576 1132 10;
#X obj 3 5 cnv 15 301 42 empty empty onsetsds~ 20 20 2 37 #e0e0e0 #000000 0;
#X obj 305 6 cnv 15 250 40 empty empty empty 12 13 0 18 #7c7c7c #e0e4dc 0;
#N canvas 0 22 450 278 (subpatch) 0;
#X coords 0 1 100 -1 302 42 1 0 0;
#X restore 2 5 graph;
#N canvas 382 141 749 319 (subpatch) 0;
#X coords 0 -1 1 1 252 42 2 100 100;
#X restore 304 5 pd;
#X obj 336 10 cnv 10 10 10 empty empty xlab 0 15 2 30 #7c7c7c #e0e4dc 0;
#X obj 494 26 cnv 10 10 10 empty empty library 0 6 2 13 #7c7c7c #e0e4dc 0;
#X obj 23 41 cnv 4 4 4 empty empty Onset 0 28 2 18 #e0e0e0 #000000 0;
#X obj 76 41 cnv 4 4 4 empty empty detector 0 28 2 18 #e0e0e0 #000000 0;
#X obj 3 360 cnv 3 550 3 empty empty inlets 8 12 0 13 #dcdcdc #000000 0;
#X obj 100 378 cnv 17 3 17 empty empty 1 5 9 0 16 #dcdcdc #9c9c9c 0;
#X text 125 380 floor <float>;
#X text 360 380 The lowest value that a PSP magnitude can take.;
#X text 125 400 threshold <float>;
#X text 125 430 method <float>;
#X text 125 530 whtype <float>;
#X text 360 530 Set whitening (0) or Adaptive whitening (1). Whitening (in signal processing) is a normalization technique that removes spectral bias by equalizing energy across frequency components.;
#X text 125 586 relaxtime <float>;
#X text 360 586 Relax time in seconds.;
#X obj 3 611 cnv 3 550 3 empty empty outlets 8 12 0 13 #dcdcdc #000000 0;
#X obj 100 619 cnv 17 3 17 empty empty 1 5 9 0 16 #dcdcdc #9c9c9c 0;
#X text 125 618 float;
#X text 360 618 ODF val after median processing.;
#X obj 100 651 cnv 17 3 17 empty empty 2 5 9 0 16 #dcdcdc #9c9c9c 0;
#X text 125 650 bang;
#X text 360 650 bang on onset;
#X obj 3 691 cnv 3 550 3 empty empty arguments 8 12 0 13 #dcdcdc #000000 0;
#X text 125 709 fftsize <float> — fftsize of the object (512 is recommended);
#X text 125 735 medspan <float> — Number of frames used in median calculation;
#X obj 3 815 cnv 15 552 21 empty empty empty 20 12 0 14 #e0e0e0 #202020 0;
#X text 68 87 [onsetsds~] [onsetsds~] is an object based on the library of Dan Stowell. It provides capabilities for FFT-based onset detection that works very efficiently in real-time \, and can detect onsets pretty well in a broad variety of musical signals \, with a fast reaction time.;
#X text 360 400 Threshold (of ODF value \, after median processing) for detection.;
#X text 360 430 Set the onset detector method \, 1: power \, 2: Sum of magnitutes \; 3: Complex-domain deviation \; 4: Complex-domain deviation \, rectified \; 5: Phase deviation \; 6: Weighted phase deviation \; 7: Modified Kullback-Liebler deviation (default), f 60;
