#N canvas 0 0 925 1132 10;
#X declare -lib xlab;
#X obj 17 17 declare -lib xlab;
#X obj 2 199 l.orchidea;
#X msg 68 134 inst Flute;
#X msg 2 79 note C4;
#X msg 78 154 tech ordinario;
#X connect 2 0 1 0;
#X connect 3 0 1 0;
#X connect 4 0 1 0;
