#N canvas 0 0 925 1132 10;
#X declare -lib timbreIDLib;
#X declare -lib py4pd;
#X declare -lib neimog;
#X declare -path build;
#X obj 7 155 py.train, f 28;
#N canvas 0 0 925 1132 config 1;
#X obj 4 50 declare -lib timbreIDLib;
#X obj 4 26 declare -lib py4pd;
#X text 156 49 <= Must be last version;
#X obj 5 188 py.pip;
#X msg 5 103 pip install skl2onnx;
#X msg 48 127 pip install catboost;
#X text 125 25 <= Must be last version (> 1.0);
#X text 54 188 <= If this not work means that you don't have py4pd;
#N canvas 0 0 925 1102 just-for-charles 0;
#X obj 30 84 declare -lib neimog;
#X text 151 60 <= Just for my (Charles) use;
#X text 151 84 <= Just for my (Charles) use (don't need to install it);
#X obj 30 60 declare -path build;
#X restore 4 3 pd just-for-charles;
#X text 138 103 1) Click in this first;
#X text 177 127 2) Click in this second;
#X msg 66 157 pip install librosa;
#X connect 4 0 3 0;
#X connect 5 0 3 0;
#X connect 11 0 3 0;
#X restore 6 3 pd config;
#N canvas 0 50 450 250 (subpatch) 0;
#X array train 44100 float 4;
#A color 0;
#A width 1;
#X coords 0 1 44099 -1 237 83 1;
#X restore 223 76 graph;
#X msg 7 49 trainfolder Flute;
#X msg 197 226 analyze \$1 2048;
#X obj 197 249 mfcc train 190;
#X obj 197 299 list trim;
#X obj 197 202 unpack f s, f 22;
#X obj 440 350 tabplay~ train;
#X obj 440 396 dac~;
#X obj 440 324 bng 18 250 50 0 empty empty empty 0 -9 0 10 #fcfcfc #000000 #000000;
#X msg 28 96 train;
#X msg 37 120 export model.onnx;
#X msg 21 72 analyze;
#X obj 105 204 bang~;
#X obj 105 226 int;
#X obj 105 248 + 1;
#X obj 105 270 % 16;
#X obj 105 292 sel 0;
#X obj 5 255 receive~ t;
#X listbox 212 443 20 0 0 0 - - - 0;
#X msg 36 374 dump tensors_inputs;
#X obj 5 344 list prepend features;
#X obj 5 323 mfcc~ 2048 190;
#X obj 476 396 send~ t;
#X listbox 5 468 39 0 0 0 - - - 0;
#X obj 5 405 onnx model.onnx probabilities label;
#X obj 197 277 list prepend, f 22;
#X obj 67 11 cnv 18 1 1 empty empty <=\ Check\ this\ first\,\ you\ need\ to\ install\ things! 0 0 0 10 #ffffff #ff0400 0;
#X text 70 73 2);
#X text 67 95 3);
#X text 147 119 4);
#X text 194 175 Train model using mfcc from timbreIDLib;
#X text 121 48 1) Folder not provide \, you must create your data.;
#X connect 0 1 7 0;
#X connect 3 0 0 0;
#X connect 4 0 5 0;
#X connect 5 0 27 0;
#X connect 6 0 0 1;
#X connect 7 0 4 0;
#X connect 7 1 27 1;
#X connect 8 0 9 0;
#X connect 8 0 9 1;
#X connect 8 0 24 0;
#X connect 10 0 8 0;
#X connect 11 0 0 0;
#X connect 12 0 0 0;
#X connect 13 0 0 0;
#X connect 14 0 15 0;
#X connect 15 0 16 0;
#X connect 16 0 17 0;
#X connect 17 0 15 1;
#X connect 17 0 18 0;
#X connect 18 0 23 0;
#X connect 19 0 23 0;
#X connect 21 0 26 0;
#X connect 22 0 26 0;
#X connect 23 0 22 0;
#X connect 26 0 25 0;
#X connect 26 1 20 0;
#X connect 27 0 6 0;
