#N canvas 827 239 527 327 12;
#X obj 87 261 dac~;
#X obj 87 17 osc~ 440;
#X obj 87 46 *~ 0.1;
#X obj 87 108 vstplugin~ -e StereoEncoder.vst3 2 4;
#X f 58;
#X obj 87 172 vstplugin~ -e BinauralDecoder.vst3 4 2;
#X connect 1 0 2 0;
#X connect 2 0 3 1 32.................N....7W...fC....+E...nB....;
#X connect 2 0 3 0 32.................U.........PE.........nB....;
#X connect 3 0 4 0;
#X connect 3 1 4 1;
#X connect 3 2 4 2;
#X connect 3 3 4 3;
#X connect 4 0 0 0 32.................i.........vH.........TD....;
#X connect 4 1 0 1 32.................i....T6++++H....09+++WD....;
