#N canvas 964 23 473 1016 12;
#X declare -path pd-musesampler;
#X declare -path pd-neimog;
#X declare -path else;
#X obj 253 5 vradio 20 1 0 4 empty empty empty 0 -8 0 10 #e4e4e4 #000000 #373737 0;
#X text 276 23 musesample~;
#N canvas 964 23 473 1016 sfont 0;
#X obj 5 425 sfont~, f 25;
#X msg 203 272 pgm \$1 \, 1;
#X obj 203 224 nbx 6 35 -1e+37 1e+37 0 0 empty empty empty 0 -8 0 10 #e4e4e4 #373737 #373737 0 256;
#X msg 47 256 -1;
#X msg 90 256 1;
#X obj 50 303 + 1, f 13;
#X obj 5 621 *~ 0.8;
#X listbox 26 336 9 0 0 0 - - - 0;
#X obj 198 425 nbx 31 45 -1e+37 1e+37 0 0 empty empty empty 0 -8 0 10 #e4e4e4 #373737 #373737 0 256;
#X obj 286 224 / 127;
#X obj 5 192 route keys pad-1 pad-2 knob-1;
#X obj 286 253 * 20;
#X obj 5 39 inlet;
#X obj 450 263 loadbang;
#X obj 450 292 del 0.5 1 sec;
#X obj 258 85 r inst;
#X msg 260 142 1;
#X obj 258 172 switch~;
#X msg 402 142 0;
#X obj 258 114 sel 1, f 24;
#X obj 5 743 outlet~;
#X msg 450 324 open ./sf/MSBasic.sf3;
#X connect 0 0 6 0;
#X connect 1 0 0 0;
#X connect 2 0 1 0;
#X connect 2 0 5 1;
#X connect 3 0 5 0;
#X connect 4 0 5 0;
#X connect 5 0 2 0;
#X connect 6 0 20 0;
#X connect 8 0 6 1;
#X connect 9 0 11 0;
#X connect 10 0 0 0;
#X connect 10 0 7 0;
#X connect 10 1 3 0;
#X connect 10 2 4 0;
#X connect 10 3 9 0;
#X connect 11 0 8 0;
#X connect 12 0 10 0;
#X connect 13 0 14 0;
#X connect 14 0 21 0;
#X connect 15 0 19 0;
#X connect 16 0 17 0;
#X connect 18 0 17 0;
#X connect 19 0 16 0;
#X connect 19 1 18 0;
#X connect 21 0 0 0;
#X restore 2 253 pd sfont;
#X obj 250 143 + 1;
#X obj 576 32 declare -path pd-musesampler;
#N canvas 733 172 450 300 musesampler 0;
#X obj 9 9 inlet;
#X obj 9 38 route keys;
#X obj 9 67 unpack f f, f 30;
#X obj 9 96 t b f, f 20;
#X obj 239 124 sel 0, f 18;
#X obj 9 157 symbol;
#X obj 9 233 pack s f f;
#X obj 198 96 t f f, f 10;
#X msg 239 161 symbol noteoff;
#X msg 341 161 symbol noteon;
#X obj 9 262 list trim;
#X obj 122 357 print;
#X msg 143 269 get instruments;
#X obj 400 19 r inst;
#X obj 400 48 sel 2, f 24;
#X msg 402 76 1;
#X obj 400 106 switch~;
#X msg 544 76 0;
#X obj 9 352 outlet~;
#X obj 9 323 musesampler~ -i 167;
#X connect 0 0 1 0;
#X connect 1 0 2 0;
#X connect 2 0 3 0;
#X connect 2 1 7 0;
#X connect 3 0 5 0;
#X connect 3 1 6 1;
#X connect 4 0 8 0;
#X connect 4 1 9 0;
#X connect 5 0 6 0;
#X connect 6 0 10 0;
#X connect 7 0 6 2;
#X connect 7 1 4 0;
#X connect 8 0 5 1;
#X connect 9 0 5 1;
#X connect 10 0 19 0;
#X connect 12 0 19 0;
#X connect 13 0 14 0;
#X connect 14 0 15 0;
#X connect 14 1 17 0;
#X connect 15 0 16 0;
#X connect 17 0 16 0;
#X connect 19 0 18 0;
#X connect 19 2 11 0;
#X restore 137 253 pd musesampler;
#X text 276 46 plaits~;
#N canvas 1443 23 471 1016 plaits 1;
#X obj 9 9 inlet;
#X obj 9 38 route keys;
#X obj 9 308 plaits~ -model 11 -midi;
#X obj 144 67 loadbang;
#X obj 10 179 pack f f f;
#X obj 10 115 poly 10 1;
#X obj 10 210 route 1 2 3 4 5 6 7 8 9 10, f 146;
#X obj 165 308 plaits~ -model 11 -midi;
#X obj 327 308 plaits~ -model 11 -midi;
#X obj 483 308 plaits~ -model 11 -midi;
#X obj 637 308 plaits~ -model 11 -midi;
#X obj 793 308 plaits~ -model 11 -midi;
#X obj 260 509 plaits~ -model 11 -midi;
#X obj 416 509 plaits~ -model 11 -midi;
#X obj 570 509 plaits~ -model 11 -midi;
#X obj 726 509 plaits~ -model 11 -midi;
#X obj 344 45 r inst;
#X msg 346 102 1;
#X obj 344 132 switch~;
#X msg 488 102 0;
#X obj 344 74 sel 3, f 24;
#X obj 61 593 outlet~;
#X msg 144 113 tr_active 1;
#X connect 0 0 1 0;
#X connect 1 0 5 0;
#X connect 2 0 21 0;
#X connect 3 0 22 0;
#X connect 4 0 6 0;
#X connect 5 0 4 0;
#X connect 5 1 4 1;
#X connect 5 2 4 2;
#X connect 6 0 2 0;
#X connect 6 1 7 0;
#X connect 6 2 8 0;
#X connect 6 3 9 0;
#X connect 6 4 10 0;
#X connect 6 5 11 0;
#X connect 6 6 12 0;
#X connect 6 7 13 0;
#X connect 6 8 14 0;
#X connect 6 9 15 0;
#X connect 7 0 21 0;
#X connect 8 0 21 0;
#X connect 9 0 21 0;
#X connect 10 0 21 0;
#X connect 11 0 21 0;
#X connect 12 0 21 0;
#X connect 13 0 21 0;
#X connect 14 0 21 0;
#X connect 15 0 21 0;
#X connect 16 0 20 0;
#X connect 17 0 18 0;
#X connect 19 0 18 0;
#X connect 20 0 17 0;
#X connect 20 1 19 0;
#X connect 22 0 2 0;
#X connect 22 0 7 0;
#X connect 22 0 8 0;
#X connect 22 0 9 0;
#X connect 22 0 10 0;
#X connect 22 0 11 0;
#X connect 22 0 15 0;
#X connect 22 0 14 0;
#X connect 22 0 13 0;
#X connect 22 0 12 0;
#X restore 272 253 pd plaits;
#X text 276 4 sfont~;
#X obj 406 115 loadbang;
#X msg 408 143 0;
#X obj 2 213 gate 4, f 61;
#X text 276 67 ritmica brasil;
#N canvas 0 50 450 300 ritmica 0;
#X obj 20 28 inlet;
#X obj 41 185 file glob;
#X msg 41 149 symbol /run/media/neimog/ONEDRIVE/MusicData/Samples/ChicoCorrea/\$1_*.wav, f 78;
#X obj 41 115 - 47;
#X obj 20 57 list split 1;
#X obj 41 86 unpack f f;
#X obj 41 214 unpack s f;
#X obj 41 272 readsf~;
#X obj 41 351 dac~;
#X msg 41 243 open \$1 \, 1;
#X connect 0 0 4 0;
#X connect 1 0 6 0;
#X connect 2 0 1 0;
#X connect 3 0 2 0;
#X connect 4 1 5 0;
#X connect 5 0 3 0;
#X connect 6 0 9 0;
#X connect 7 0 8 0;
#X connect 7 0 8 1;
#X connect 9 0 7 0;
#X restore 407 253 pd ritmica;
#X obj 250 183 s inst;
#X obj 323 180 nbx 4 18 -1e+37 1e+37 0 0 empty empty empty 0 -8 0 10 #e4e4e4 #373737 #373737 0 256;
#X obj 3 5 c.midi-in;
#X obj 3 417 outlet~;
#X obj 3 340 gate~ 2;
#X obj 147 417 dac~;
#X obj 278 286 loadbang;
#X obj 276 389 sig~;
#X msg 280 326 1;
#X obj 278 362 nbx 4 18 -1e+37 1e+37 0 0 empty empty empty 0 -8 0 10 #e4e4e4 #373737 #373737 0 256;
#X obj 525 253 tgl 85 0 empty empty empty 17 7 0 10 #e4e4e4 #000000 #373737 0 1;
#X obj 525 347 + 1;
#X obj 576 5 declare -path pd-neimog;
#X obj 158 486 declare -path else;
#X connect 0 0 3 0;
#X connect 2 0 18 1;
#X connect 3 0 11 0;
#X connect 3 0 14 0;
#X connect 3 0 15 0;
#X connect 5 0 18 1;
#X connect 7 0 18 1;
#X connect 9 0 10 0;
#X connect 10 0 0 0;
#X connect 11 0 2 0;
#X connect 11 1 5 0;
#X connect 11 2 7 0;
#X connect 11 3 13 0;
#X connect 16 0 11 1;
#X connect 18 0 17 0;
#X connect 18 1 19 0;
#X connect 18 1 19 1;
#X connect 20 0 22 0;
#X connect 21 0 18 0;
#X connect 22 0 23 0;
#X connect 23 0 21 0;
#X connect 24 0 25 0;
#X connect 25 0 23 0;
#X coords 0 0 1 1 366 133 2 0 0;
