#N canvas 863 31 1051 1011 12;
#X obj 9 585 outlet~;
#X obj 9 17 inlet;
#X obj 9 306 readsf~, f 17;
#X msg 9 249 start;
#X obj 9 211 t b a b, f 38;
#X obj 125 377 switch~;
#X msg 125 332 0;
#X msg 272 277 1;
#X obj 140 250 symbol;
#X obj 339 260 else/adsr~ 1 1 1 30;
#X obj 339 224 sig~;
#X msg 339 122 1;
#X obj 76 120 t b f, f 12;
#X obj 76 145 del 1 1 msec;
#X msg 76 170 0;
#X obj 9 426 *~, f 44;
#X obj 435 297 sel 0;
#X msg 435 326 0;
#X obj 188 585 outlet~;
#X obj 632 349 expr random(0 \, 100) * 0.01;
#X obj 632 378 nbx 4 18 -1e+37 1e+37 0 0 empty empty empty 0 -8 0 10 #e4e4e4 #373737 #373737 0 256;
#X obj 633 305 bng 25 250 50 0 empty empty empty 17 7 0 10 #e4e4e4 #000000 #373737;
#X obj 632 455 nbx 4 18 -1e+37 1e+37 0 0 empty empty empty 0 -8 0 10 #e4e4e4 #373737 #373737 0 256;
#X obj 632 426 !- 1;
#X obj 9 511 *~;
#X obj 188 511 *~;
#X obj 76 95 t f b b, f 67;
#X msg 140 278 open \$1;
#X text 55 16 <sound pathname> \, <duration ms> \, midi;
#X obj 9 56 unpack s f f, f 23;
#X connect 1 0 29 0;
#X connect 2 0 15 0;
#X connect 2 1 6 0;
#X connect 3 0 2 0;
#X connect 4 0 3 0;
#X connect 4 1 8 0;
#X connect 4 2 7 0;
#X connect 6 0 5 0;
#X connect 7 0 5 0;
#X connect 8 0 27 0;
#X connect 9 0 15 1;
#X connect 9 1 16 0;
#X connect 10 0 9 0;
#X connect 11 0 10 0;
#X connect 12 0 13 0;
#X connect 12 1 13 1;
#X connect 13 0 14 0;
#X connect 14 0 10 0;
#X connect 15 0 24 0;
#X connect 15 0 25 0;
#X connect 16 0 17 0;
#X connect 17 0 5 0;
#X connect 19 0 20 0;
#X connect 20 0 23 0;
#X connect 20 0 24 1;
#X connect 21 0 19 0;
#X connect 22 0 25 1;
#X connect 23 0 22 0;
#X connect 24 0 0 0;
#X connect 25 0 18 0;
#X connect 26 0 12 0;
#X connect 26 1 11 0;
#X connect 26 2 21 0;
#X connect 27 0 2 0;
#X connect 29 0 4 0;
#X connect 29 1 26 0;
