#N canvas 12 44 941 473 12;
#X declare -path else;
#X obj 11 10 midiin;
#X obj 11 75 cyclone/midiparse, f 74;
#X obj 508 101 nbx 4 18 1 127 0 0 empty empty empty 0 -8 0 10 #e4e4e4 #373737 #373737 0 256;
#X text 559 100 Ch;
#X obj 425 144 nbx 4 18 -1e+37 1e+37 0 0 empty empty empty 0 -8 0 10 #e4e4e4 #373737 #373737 0 256;
#X text 483 143 Pitch Bend;
#X obj 342 170 nbx 4 18 -1e+37 1e+37 0 0 empty empty empty 0 -8 0 10 #e4e4e4 #373737 #373737 0 256;
#X text 400 169 After Touch;
#X text 309 197 Program;
#X obj 259 198 nbx 4 18 -1e+37 1e+37 0 0 empty empty empty 0 -8 0 10 #e4e4e4 #373737 #373737 0 256;
#X obj 93 295 unpack f f;
#X obj 93 324 nbx 4 18 -1e+37 1e+37 0 0 empty empty empty 0 -8 0 10 #e4e4e4 #373737 #373737 0 256;
#X obj 142 324 nbx 6 18 -1e+37 1e+37 0 0 empty empty empty 0 -8 0 10 #e4e4e4 #373737 #373737 0 256;
#X obj 591 393 cnv 15 23 23 empty pad-1 empty 20 12 0 14 #e1e1e1 #000000 0;
#X obj 616 393 cnv 15 23 23 empty pad-2 empty 20 12 0 14 #e1e1e1 #000000 0;
#X obj 641 393 cnv 15 23 23 empty pad-3 empty 20 12 0 14 #e1e1e1 #000000 0;
#X obj 666 393 cnv 15 23 23 empty pad-4 empty 20 12 0 14 #e1e1e1 #000000 0;
#X obj 591 420 cnv 15 23 23 empty pad-5 empty 20 12 0 14 #e1e1e1 #000000 0;
#X obj 616 420 cnv 15 23 23 empty pad-6 empty 20 12 0 14 #e1e1e1 #000000 0;
#X obj 641 420 cnv 15 23 23 empty pad-7 empty 20 12 0 14 #e1e1e1 #000000 0;
#X obj 666 420 cnv 15 23 23 empty pad-8 empty 20 12 0 14 #e1e1e1 #000000 0;
#X obj 63 10 declare -path else;
#X obj 491 446 keyboard 14 71 2 3 1 0 empty keyboard;
#X obj 566 393 knob 23 0 127 0 0 empty knob-23 #E4E4E4 #B7B7B7 #000000 1 0 0 0 1 270 0 0 0;
#X obj 566 420 knob 23 0 127 0 0 empty knob-27 #E4E4E4 #B7B7B7 #000000 1 0 0 0 1 270 0 0 0;
#X obj 541 393 knob 23 0 127 0 0 empty knob-22 #E4E4E4 #B7B7B7 #000000 1 0 0 0 1 270 0 0 0;
#X obj 541 420 knob 23 0 127 0 0 empty knob-26 #E4E4E4 #B7B7B7 #000000 1 0 0 0 1 270 0 0 0;
#X obj 516 393 knob 23 0 127 0 0 empty knob-21 #E4E4E4 #B7B7B7 #000000 1 0 0 0 1 270 0 0 0;
#X obj 516 420 knob 23 0 127 0 0 empty knob-25 #E4E4E4 #B7B7B7 #000000 1 0 0 0 1 270 0 0 0;
#X obj 491 393 knob 23 0 127 0 0 empty knob-20 #E4E4E4 #B7B7B7 #000000 1 0 0 0 1 270 0 0 0;
#X obj 491 420 knob 23 0 127 0 0 empty knob-24 #E4E4E4 #B7B7B7 #000000 1 0 0 0 1 270 0 0 0;
#N canvas 12 563 461 473 pad 0;
#X obj 13 22 inlet;
#N canvas 0 50 450 300 pre1 0;
#X obj 14 19 inlet;
#N canvas 12 825 461 211 pad-3 0;
#X obj 109 152 sel 0, f 11;
#X msg 18 425 color \$1 \$2 \$3;
#X obj 109 262 loadbang;
#X obj 18 378 pack s s s;
#X msg 109 295 list #e1e1e1 #000000 #000000, f 10;
#X msg 109 209 set #e1e1e1;
#X msg 194 209 set #38c4e0;
#X msg 18 263 #e1e1e1;
#X obj 18 17 inlet;
#X obj 18 46 unpack f f;
#X obj 18 122 sel 42;
#X obj 18 517 send pad-3, f 13;
#X connect 0 0 5 0;
#X connect 0 1 6 0;
#X connect 1 0 11 0;
#X connect 2 0 4 0;
#X connect 3 0 1 0;
#X connect 4 0 3 0;
#X connect 5 0 7 0;
#X connect 6 0 7 0;
#X connect 7 0 3 0;
#X connect 8 0 9 0;
#X connect 9 0 10 0;
#X connect 9 1 0 0;
#X connect 10 0 7 0;
#X restore 169 258 pd pad-3;
#N canvas 0 50 450 300 pad-2 0;
#X obj 109 152 sel 0, f 11;
#X msg 18 425 color \$1 \$2 \$3;
#X obj 109 262 loadbang;
#X obj 18 378 pack s s s;
#X msg 109 295 list #e1e1e1 #000000 #000000, f 10;
#X msg 109 209 set #e1e1e1;
#X msg 194 209 set #38c4e0;
#X msg 18 263 #e1e1e1;
#X obj 18 17 inlet;
#X obj 18 46 unpack f f;
#X obj 18 517 send pad-2, f 13;
#X obj 18 122 sel 41;
#X connect 0 0 5 0;
#X connect 0 1 6 0;
#X connect 1 0 10 0;
#X connect 2 0 4 0;
#X connect 3 0 1 0;
#X connect 4 0 3 0;
#X connect 5 0 7 0;
#X connect 6 0 7 0;
#X connect 7 0 3 0;
#X connect 8 0 9 0;
#X connect 9 0 11 0;
#X connect 9 1 0 0;
#X connect 11 0 7 0;
#X restore 95 258 pd pad-2;
#N canvas 12 825 461 211 pad-1 0;
#X obj 109 152 sel 0, f 11;
#X msg 18 425 color \$1 \$2 \$3;
#X obj 109 262 loadbang;
#X obj 18 378 pack s s s;
#X msg 109 295 list #e1e1e1 #000000 #000000, f 10;
#X msg 109 209 set #e1e1e1;
#X msg 194 209 set #38c4e0;
#X msg 18 263 #e1e1e1;
#X obj 18 17 inlet;
#X obj 18 46 unpack f f;
#X obj 18 122 sel 40;
#X obj 18 517 send pad-1, f 13;
#X connect 0 0 5 0;
#X connect 0 1 6 0;
#X connect 1 0 11 0;
#X connect 2 0 4 0;
#X connect 3 0 1 0;
#X connect 4 0 3 0;
#X connect 5 0 7 0;
#X connect 6 0 7 0;
#X connect 7 0 3 0;
#X connect 8 0 9 0;
#X connect 9 0 10 0;
#X connect 9 1 0 0;
#X connect 10 0 7 0;
#X restore 23 258 pd pad-1;
#N canvas 0 50 450 300 pad-4 0;
#X obj 109 152 sel 0, f 11;
#X msg 18 425 color \$1 \$2 \$3;
#X obj 109 262 loadbang;
#X obj 18 378 pack s s s;
#X msg 109 295 list #e1e1e1 #000000 #000000, f 10;
#X msg 109 209 set #e1e1e1;
#X msg 194 209 set #38c4e0;
#X msg 18 263 #e1e1e1;
#X obj 18 17 inlet;
#X obj 18 46 unpack f f;
#X obj 18 517 send pad-4, f 13;
#X obj 18 122 sel 43;
#X connect 0 0 5 0;
#X connect 0 1 6 0;
#X connect 1 0 10 0;
#X connect 2 0 4 0;
#X connect 3 0 1 0;
#X connect 4 0 3 0;
#X connect 5 0 7 0;
#X connect 6 0 7 0;
#X connect 7 0 3 0;
#X connect 8 0 9 0;
#X connect 9 0 11 0;
#X connect 9 1 0 0;
#X connect 11 0 7 0;
#X restore 244 258 pd pad-4;
#N canvas 0 50 450 300 pad-5 0;
#X obj 109 152 sel 0, f 11;
#X msg 18 425 color \$1 \$2 \$3;
#X obj 109 262 loadbang;
#X obj 18 378 pack s s s;
#X msg 109 295 list #e1e1e1 #000000 #000000, f 10;
#X msg 18 263 #e1e1e1;
#X obj 18 17 inlet;
#X obj 18 46 unpack f f;
#X obj 18 517 send pad-5, f 13;
#X obj 18 122 sel 36;
#X msg 109 209 set #e1e1e1;
#X msg 194 209 set #c5a1f7;
#X connect 0 0 10 0;
#X connect 0 1 11 0;
#X connect 1 0 8 0;
#X connect 2 0 4 0;
#X connect 3 0 1 0;
#X connect 4 0 3 0;
#X connect 5 0 3 0;
#X connect 6 0 7 0;
#X connect 7 0 9 0;
#X connect 7 1 0 0;
#X connect 9 0 5 0;
#X connect 10 0 5 0;
#X connect 11 0 5 0;
#X restore 23 286 pd pad-5;
#N canvas 0 50 450 300 pad-6 0;
#X obj 109 152 sel 0, f 11;
#X msg 18 425 color \$1 \$2 \$3;
#X obj 109 262 loadbang;
#X obj 18 378 pack s s s;
#X msg 109 295 list #e1e1e1 #000000 #000000, f 10;
#X msg 109 209 set #e1e1e1;
#X msg 18 263 #e1e1e1;
#X obj 18 17 inlet;
#X obj 18 46 unpack f f;
#X obj 18 517 send pad-6, f 13;
#X obj 18 122 sel 37;
#X msg 194 209 set #c5a1f7;
#X connect 0 0 5 0;
#X connect 0 1 11 0;
#X connect 1 0 9 0;
#X connect 2 0 4 0;
#X connect 3 0 1 0;
#X connect 4 0 3 0;
#X connect 5 0 6 0;
#X connect 6 0 3 0;
#X connect 7 0 8 0;
#X connect 8 0 10 0;
#X connect 8 1 0 0;
#X connect 10 0 6 0;
#X connect 11 0 6 0;
#X restore 95 286 pd pad-6;
#N canvas 0 50 450 300 pad-7 0;
#X obj 109 152 sel 0, f 11;
#X msg 18 425 color \$1 \$2 \$3;
#X obj 109 262 loadbang;
#X obj 18 378 pack s s s;
#X msg 109 295 list #e1e1e1 #000000 #000000, f 10;
#X msg 109 209 set #e1e1e1;
#X msg 18 263 #e1e1e1;
#X obj 18 17 inlet;
#X obj 18 46 unpack f f;
#X obj 18 517 send pad-7, f 13;
#X obj 18 122 sel 38;
#X msg 194 209 set #c5a1f7;
#X connect 0 0 5 0;
#X connect 0 1 11 0;
#X connect 1 0 9 0;
#X connect 2 0 4 0;
#X connect 3 0 1 0;
#X connect 4 0 3 0;
#X connect 5 0 6 0;
#X connect 6 0 3 0;
#X connect 7 0 8 0;
#X connect 8 0 10 0;
#X connect 8 1 0 0;
#X connect 10 0 6 0;
#X connect 11 0 6 0;
#X restore 169 286 pd pad-7;
#N canvas 0 50 450 300 pad-8 0;
#X obj 109 152 sel 0, f 11;
#X msg 18 425 color \$1 \$2 \$3;
#X obj 109 262 loadbang;
#X obj 18 378 pack s s s;
#X msg 109 295 list #e1e1e1 #000000 #000000, f 10;
#X msg 109 209 set #e1e1e1;
#X msg 18 263 #e1e1e1;
#X obj 18 17 inlet;
#X obj 18 46 unpack f f;
#X obj 18 517 send pad-8, f 13;
#X obj 18 122 sel 39;
#X msg 194 209 set #c5a1f7;
#X connect 0 0 5 0;
#X connect 0 1 11 0;
#X connect 1 0 9 0;
#X connect 2 0 4 0;
#X connect 3 0 1 0;
#X connect 4 0 3 0;
#X connect 5 0 6 0;
#X connect 6 0 3 0;
#X connect 7 0 8 0;
#X connect 8 0 10 0;
#X connect 8 1 0 0;
#X connect 10 0 6 0;
#X connect 11 0 6 0;
#X restore 244 286 pd pad-8;
#X obj 334 124 unpack f f;
#X obj 345 216 expr if($f1 > 39 \, $f1 - 39 \, $f1 - 31);
#X obj 320 330 spigot;
#X msg 345 249 pad-\$1;
#X obj 320 91 t a a;
#X obj 320 382 list prepend;
#X obj 320 411 list trim;
#X obj 320 456 s r-\$0;
#X connect 0 0 2 0;
#X connect 0 0 3 0;
#X connect 0 0 1 0;
#X connect 0 0 4 0;
#X connect 0 0 5 0;
#X connect 0 0 6 0;
#X connect 0 0 7 0;
#X connect 0 0 8 0;
#X connect 0 0 13 0;
#X connect 9 0 10 0;
#X connect 9 1 11 1;
#X connect 10 0 12 0;
#X connect 11 0 14 0;
#X connect 12 0 14 1;
#X connect 13 0 11 0;
#X connect 13 1 9 0;
#X connect 14 0 15 0;
#X connect 15 0 16 0;
#X restore 13 208 pd pre1;
#N canvas 0 50 450 300 pre2 0;
#X obj 14 19 inlet;
#N canvas 12 825 461 211 pad-3 0;
#X obj 109 152 sel 0, f 11;
#X msg 18 425 color \$1 \$2 \$3;
#X obj 109 262 loadbang;
#X obj 18 378 pack s s s;
#X msg 109 295 list #e1e1e1 #000000 #000000, f 10;
#X msg 109 209 set #e1e1e1;
#X msg 18 263 #e1e1e1;
#X obj 18 17 inlet;
#X obj 18 46 unpack f f;
#X obj 18 517 send pad-3, f 13;
#X obj 18 122 sel 50;
#X msg 194 209 set #89cc80;
#X connect 0 0 5 0;
#X connect 0 1 11 0;
#X connect 1 0 9 0;
#X connect 2 0 4 0;
#X connect 3 0 1 0;
#X connect 4 0 3 0;
#X connect 5 0 6 0;
#X connect 6 0 3 0;
#X connect 7 0 8 0;
#X connect 8 0 10 0;
#X connect 8 1 0 0;
#X connect 10 0 6 0;
#X connect 11 0 6 0;
#X restore 169 258 pd pad-3;
#N canvas 0 50 450 300 pad-2 0;
#X obj 109 152 sel 0, f 11;
#X msg 18 425 color \$1 \$2 \$3;
#X obj 109 262 loadbang;
#X obj 18 378 pack s s s;
#X msg 109 295 list #e1e1e1 #000000 #000000, f 10;
#X msg 109 209 set #e1e1e1;
#X msg 18 263 #e1e1e1;
#X obj 18 17 inlet;
#X obj 18 46 unpack f f;
#X obj 18 517 send pad-2, f 13;
#X msg 194 209 set #89cc80;
#X obj 18 122 sel 49;
#X connect 0 0 5 0;
#X connect 0 1 10 0;
#X connect 1 0 9 0;
#X connect 2 0 4 0;
#X connect 3 0 1 0;
#X connect 4 0 3 0;
#X connect 5 0 6 0;
#X connect 6 0 3 0;
#X connect 7 0 8 0;
#X connect 8 0 11 0;
#X connect 8 1 0 0;
#X connect 10 0 6 0;
#X connect 11 0 6 0;
#X restore 95 258 pd pad-2;
#N canvas 12 825 461 211 pad-1 0;
#X obj 109 152 sel 0, f 11;
#X msg 18 425 color \$1 \$2 \$3;
#X obj 109 262 loadbang;
#X obj 18 378 pack s s s;
#X msg 109 295 list #e1e1e1 #000000 #000000, f 10;
#X msg 109 209 set #e1e1e1;
#X msg 18 263 #e1e1e1;
#X obj 18 17 inlet;
#X obj 18 46 unpack f f;
#X obj 18 517 send pad-1, f 13;
#X obj 18 122 sel 48;
#X msg 194 209 set #89cc80;
#X connect 0 0 5 0;
#X connect 0 1 11 0;
#X connect 1 0 9 0;
#X connect 2 0 4 0;
#X connect 3 0 1 0;
#X connect 4 0 3 0;
#X connect 5 0 6 0;
#X connect 6 0 3 0;
#X connect 7 0 8 0;
#X connect 8 0 10 0;
#X connect 8 1 0 0;
#X connect 10 0 6 0;
#X connect 11 0 6 0;
#X restore 23 258 pd pad-1;
#N canvas 0 50 450 300 pad-4 0;
#X obj 109 152 sel 0, f 11;
#X msg 18 425 color \$1 \$2 \$3;
#X obj 109 262 loadbang;
#X obj 18 378 pack s s s;
#X msg 109 295 list #e1e1e1 #000000 #000000, f 10;
#X msg 109 209 set #e1e1e1;
#X msg 18 263 #e1e1e1;
#X obj 18 17 inlet;
#X obj 18 46 unpack f f;
#X obj 18 517 send pad-4, f 13;
#X msg 194 209 set #89cc80;
#X obj 18 122 sel 51;
#X connect 0 0 5 0;
#X connect 0 1 10 0;
#X connect 1 0 9 0;
#X connect 2 0 4 0;
#X connect 3 0 1 0;
#X connect 4 0 3 0;
#X connect 5 0 6 0;
#X connect 6 0 3 0;
#X connect 7 0 8 0;
#X connect 8 0 11 0;
#X connect 8 1 0 0;
#X connect 10 0 6 0;
#X connect 11 0 6 0;
#X restore 244 258 pd pad-4;
#N canvas 0 50 450 300 pad-5 0;
#X obj 109 152 sel 0, f 11;
#X msg 18 425 color \$1 \$2 \$3;
#X obj 109 262 loadbang;
#X obj 18 378 pack s s s;
#X msg 109 295 list #e1e1e1 #000000 #000000, f 10;
#X msg 18 263 #e1e1e1;
#X obj 18 17 inlet;
#X obj 18 46 unpack f f;
#X obj 18 517 send pad-5, f 13;
#X obj 18 122 sel 36;
#X msg 109 209 set #e1e1e1;
#X msg 194 209 set #c5a1f7;
#X connect 0 0 10 0;
#X connect 0 1 11 0;
#X connect 1 0 8 0;
#X connect 2 0 4 0;
#X connect 3 0 1 0;
#X connect 4 0 3 0;
#X connect 5 0 3 0;
#X connect 6 0 7 0;
#X connect 7 0 9 0;
#X connect 7 1 0 0;
#X connect 9 0 5 0;
#X connect 10 0 5 0;
#X connect 11 0 5 0;
#X restore 23 286 pd pad-5;
#N canvas 0 50 450 300 pad-6 0;
#X obj 109 152 sel 0, f 11;
#X msg 18 425 color \$1 \$2 \$3;
#X obj 109 262 loadbang;
#X obj 18 378 pack s s s;
#X msg 109 295 list #e1e1e1 #000000 #000000, f 10;
#X msg 109 209 set #e1e1e1;
#X msg 18 263 #e1e1e1;
#X obj 18 17 inlet;
#X obj 18 46 unpack f f;
#X obj 18 517 send pad-6, f 13;
#X obj 18 122 sel 37;
#X msg 194 209 set #c5a1f7;
#X connect 0 0 5 0;
#X connect 0 1 11 0;
#X connect 1 0 9 0;
#X connect 2 0 4 0;
#X connect 3 0 1 0;
#X connect 4 0 3 0;
#X connect 5 0 6 0;
#X connect 6 0 3 0;
#X connect 7 0 8 0;
#X connect 8 0 10 0;
#X connect 8 1 0 0;
#X connect 10 0 6 0;
#X connect 11 0 6 0;
#X restore 95 286 pd pad-6;
#N canvas 0 50 450 300 pad-7 0;
#X obj 109 152 sel 0, f 11;
#X msg 18 425 color \$1 \$2 \$3;
#X obj 109 262 loadbang;
#X obj 18 378 pack s s s;
#X msg 109 295 list #e1e1e1 #000000 #000000, f 10;
#X msg 109 209 set #e1e1e1;
#X msg 18 263 #e1e1e1;
#X obj 18 17 inlet;
#X obj 18 46 unpack f f;
#X obj 18 517 send pad-7, f 13;
#X obj 18 122 sel 38;
#X msg 194 209 set #c5a1f7;
#X connect 0 0 5 0;
#X connect 0 1 11 0;
#X connect 1 0 9 0;
#X connect 2 0 4 0;
#X connect 3 0 1 0;
#X connect 4 0 3 0;
#X connect 5 0 6 0;
#X connect 6 0 3 0;
#X connect 7 0 8 0;
#X connect 8 0 10 0;
#X connect 8 1 0 0;
#X connect 10 0 6 0;
#X connect 11 0 6 0;
#X restore 169 286 pd pad-7;
#N canvas 0 50 450 300 pad-8 0;
#X obj 109 152 sel 0, f 11;
#X msg 18 425 color \$1 \$2 \$3;
#X obj 109 262 loadbang;
#X obj 18 378 pack s s s;
#X msg 109 295 list #e1e1e1 #000000 #000000, f 10;
#X msg 109 209 set #e1e1e1;
#X msg 18 263 #e1e1e1;
#X obj 18 17 inlet;
#X obj 18 46 unpack f f;
#X obj 18 517 send pad-8, f 13;
#X obj 18 122 sel 39;
#X msg 194 209 set #c5a1f7;
#X connect 0 0 5 0;
#X connect 0 1 11 0;
#X connect 1 0 9 0;
#X connect 2 0 4 0;
#X connect 3 0 1 0;
#X connect 4 0 3 0;
#X connect 5 0 6 0;
#X connect 6 0 3 0;
#X connect 7 0 8 0;
#X connect 8 0 10 0;
#X connect 8 1 0 0;
#X connect 10 0 6 0;
#X connect 11 0 6 0;
#X restore 244 286 pd pad-8;
#X obj 334 124 unpack f f;
#X obj 320 330 spigot;
#X msg 383 363 pad-\$1;
#X obj 320 91 t a a;
#X obj 320 420 list prepend;
#X obj 320 449 list trim;
#X obj 320 494 s r-\$0;
#X obj 383 330 expr $f1 - 39;
#X connect 0 0 2 0;
#X connect 0 0 3 0;
#X connect 0 0 1 0;
#X connect 0 0 4 0;
#X connect 0 0 5 0;
#X connect 0 0 6 0;
#X connect 0 0 7 0;
#X connect 0 0 8 0;
#X connect 0 0 12 0;
#X connect 9 0 16 0;
#X connect 9 1 10 1;
#X connect 10 0 13 0;
#X connect 11 0 13 1;
#X connect 12 0 10 0;
#X connect 12 1 9 0;
#X connect 13 0 14 0;
#X connect 14 0 15 0;
#X connect 16 0 11 0;
#X restore 81 208 pd pre2;
#X obj 13 75 spread 36 44;
#X connect 0 0 3 0;
#X connect 3 1 1 0;
#X connect 3 2 2 0;
#X restore 167 393 pd pad;
#X obj 477 393 vsl 10 123 0 127 0 0 empty mod-1 empty 0 -9 0 10 #e4e4e4 #000000 #373737 0 1;
#X obj 460 393 vsl 10 123 0 127 0 0 empty empty empty 0 -9 0 10 #e4e4e4 #000000 #373737 0 1;
#N canvas 967 44 941 473 key 0;
#X obj 19 4 inlet;
#X obj 19 428 s keyboard;
#X connect 0 0 1 0;
#X restore 9 393 pd key;
#X obj 9 355 cyclone/gate 16, f 41;
#X obj 104 563 outlet;
#X obj 104 517 r r-\$0;
#X obj 491 628 s r-\$0;
#X obj 491 573 list prepend keys;
#X obj 491 602 list trim;
#X obj 566 334 knob 23 0 127 0 0 empty knob-23 #E4E4E4 #B7B7B7 #000000 1 0 0 0 1 270 0 0 0;
#X obj 605 329 knob 46 0 127 0 0 empty empty #E4E4E4 #B7B7B7 #000000 0 0 0 0 1 270 0 0 0;
#X msg 558 298 outline 0;
#N canvas 12 44 941 992 knob/mod 0;
#X obj 12 15 inlet;
#X obj 12 547 s, f 18;
#X msg 112 417 symbol knob-\$1;
#X obj 105 137 expr if($f1 > 19 && $f1 < 28 \, 1 \, 2);
#X obj 56 109 unpack f f;
#X obj 12 44 t a a;
#X obj 12 339 unpack f f;
#X obj 105 166 nbx 4 18 -1e+37 1e+37 0 0 empty empty empty 0 -8 0 10 #e4e4e4 #373737 #373737 0 256;
#X obj 123 333 s mod-1;
#X obj 123 229 unpack f f;
#X obj 12 192 cyclone/gate 2;
#X obj 452 417 s r-\$0;
#X obj 228 579 s r-\$0;
#X obj 228 519 list trim;
#X obj 228 490 list prepend;
#X msg 297 333;
#X msg 287 440 knob-\$1;
#X obj 282 396 - 19;
#X connect 0 0 5 0;
#X connect 2 0 1 1;
#X connect 3 0 7 0;
#X connect 3 0 10 0;
#X connect 4 1 3 0;
#X connect 5 0 10 1;
#X connect 5 1 4 0;
#X connect 6 0 1 0;
#X connect 6 0 14 0;
#X connect 6 1 2 0;
#X connect 6 1 17 0;
#X connect 9 0 8 0;
#X connect 10 0 6 0;
#X connect 10 1 9 0;
#X connect 13 0 12 0;
#X connect 14 0 13 0;
#X connect 16 0 14 1;
#X connect 17 0 16 0;
#X restore 176 282 pd knob/mod;
#X f 15;
#X obj 342 324 s r-\$0;
#X obj 342 225 list prepend aftertouch;
#X obj 342 254 list trim;
#X obj 773 257 r keyboard;
#X obj 773 286 unpack f f;
#X connect 0 0 1 0;
#X connect 1 0 35 1;
#X connect 1 1 10 0;
#X connect 1 2 44 0;
#X connect 1 3 9 0;
#X connect 1 4 6 0;
#X connect 1 5 4 0;
#X connect 1 6 2 0;
#X connect 2 0 35 0;
#X connect 4 0 33 0;
#X connect 6 0 46 0;
#X connect 10 0 11 0;
#X connect 10 1 12 0;
#X connect 22 0 39 0;
#X connect 35 0 34 0;
#X connect 35 9 31 0;
#X connect 37 0 36 0;
#X connect 39 0 40 0;
#X connect 40 0 38 0;
#X connect 43 0 42 0;
#X connect 46 0 47 0;
#X connect 47 0 45 0;
#X connect 48 0 49 0;
#X connect 49 0 22 0;
#X connect 49 1 22 1;
#X coords 0 0 1 1 235 126 2 455 391;
