#N canvas 827 239 527 327 12;
#X declare -path else;
#X obj 8 98 file glob, f 15;
#X obj 128 6 declare -path else;
#X obj 108 186 unpack s f;
#X obj 108 220 file split;
#X obj 171 296 file splitext;
#X obj 171 325 unpack s s s;
#X obj 171 354 t s b, f 9;
#X obj 171 474 pack s f;
#X obj 252 389 count 1 256;
#X text 274 324 <= Load maximum of 256 tab;
#X obj 252 447 + 15;
#X obj 8 160 t a a b, f 32;
#X msg 255 160 0;
#X obj 8 63 t a b, f 38;
#X obj 252 418 * 25;
#X obj 8 573 soundfiler;
#X obj 8 220 unpack s f;
#X obj 8 436 pack s s;
#X msg 8 474 read -resize \$1 \$2;
#N canvas 0 50 450 300 last-item 0;
#X obj 9 12 inlet;
#X obj 132 87 list length;
#X obj 132 118 - 1;
#X obj 70 154 list split;
#X obj 81 219 outlet;
#X obj 9 41 t a a a, f 21;
#X connect 0 0 5 0;
#X connect 1 0 2 0;
#X connect 2 0 3 1;
#X connect 3 1 4 0;
#X connect 5 1 3 0;
#X connect 5 2 1 0;
#X restore 108 248 pd last-item;
#X obj 171 547 send, f 41;
#X obj 8 6 inlet;
#X obj 8 35 symbol;
#N canvas 0 50 450 300 tables 0;
#X obj 14 12 loadbang;
#X obj 14 126 outlet;
#X obj 14 93 symbol tables-\$0;
#X obj 89 12 namecanvas tables-\$0;
#X obj 36 38 bng 25 250 50 0 empty empty empty 17 7 0 10 #e4e4e4 #000000 #373737;
#X connect 0 0 2 0;
#X connect 2 0 1 0;
#X connect 4 0 2 0;
#X restore 434 512 pd tables;
#X msg 171 512 obj 250 \$2 array define \$1;
#N canvas 733 172 450 300 normalize 0;
#X obj 14 146 pdcontrol;
#X msg 14 111 dir 1;
#X obj 14 174 else/format %s/%s;
#X obj 14 56 t b s;
#X obj 14 236 file normalize;
#X obj 14 203 symbol;
#X obj 14 19 inlet;
#X obj 14 265 outlet;
#X connect 0 0 2 0;
#X connect 1 0 0 0;
#X connect 2 0 5 0;
#X connect 3 0 1 0;
#X connect 3 1 2 1;
#X connect 4 0 7 0;
#X connect 5 0 4 0;
#X connect 6 0 3 0;
#X restore 8 281 pd normalize;
#X connect 0 0 11 0;
#X connect 2 0 3 0;
#X connect 3 0 19 0;
#X connect 4 0 5 0;
#X connect 5 0 6 0;
#X connect 6 0 7 0;
#X connect 6 0 17 1;
#X connect 6 1 8 0;
#X connect 7 0 24 0;
#X connect 8 0 14 0;
#X connect 10 0 7 1;
#X connect 11 0 16 0;
#X connect 11 1 2 0;
#X connect 12 0 8 0;
#X connect 13 0 0 0;
#X connect 13 1 12 0;
#X connect 14 0 10 0;
#X connect 16 0 25 0;
#X connect 17 0 18 0;
#X connect 18 0 15 0;
#X connect 19 0 4 0;
#X connect 21 0 22 0;
#X connect 22 0 13 0;
#X connect 23 0 20 1;
#X connect 24 0 20 0;
#X connect 25 0 17 0;
