#N canvas 827 239 527 327 12;
#X obj 253 147 inlet;
#X obj 51 61 inlet~;
#X obj 51 118 vu~;
#X obj 51 147 expr if($f1 < -200 \, 0 \, 1);
#X obj 51 262 spigot;
#X obj 253 176 t b b b, f 24;
#X msg 400 205 0;
#X msg 328 273 1;
#X obj 326 243 delay 1 250 msec;
#X obj 51 361 outlet;
#X msg 255 205 1;
#X connect 0 0 5 0;
#X connect 1 0 2 0;
#X connect 2 0 3 0;
#X connect 3 0 4 0;
#X connect 4 0 9 0;
#X connect 5 0 10 0;
#X connect 5 1 8 0;
#X connect 5 2 6 0;
#X connect 6 0 4 1;
#X connect 7 0 4 1;
#X connect 8 0 7 0;
#X connect 10 0 9 0;
