#N canvas 827 239 527 327 12;
#X declare -lib pd-neimog;
#X obj 42 21 declare -lib pd-neimog;
#X obj 216 21 c.midi-in;
#X obj 225 253 sfont~;
#X obj 225 290 dac~;
#X obj 216 160 route keys;
#X connect 1 0 4 0;
#X connect 2 0 3 0;
#X connect 2 1 3 1;
#X connect 4 0 2 0;
