#N canvas 827 239 527 327 12;
#X obj 9 579 writesf~;
#X obj 311 123 nbx 8 15 -1e+37 1e+37 0 1 empty empty empty 0 -8 0 10 #e4e4e4 #373737 #373737 1 256;
#X listbox 311 100 11 0 0 1 - - - 10;
#X obj 9 7 inlet~;
#X obj 316 340 pack s f;
#X obj 339 301 t b f;
#X msg 401 393 set \$1-\$2.wav;
#X listbox 311 143 11 0 0 1 - - - 10;
#X obj 250 100 tgl 59 0 empty done empty 17 7 0 10 #e4e4e4 #ff004d #373737 0 1;
#X obj 204 195 sel 1 0;
#X msg 267 340 start;
#X msg 216 340 stop;
#X obj 502 247 file mkdir;
#X obj 502 177 loadbang;
#X msg 502 214 symbol Sounds;
#X obj 439 14 loadbang;
#X msg 487 65 1;
#X msg 439 43 symbol Name;
#X obj 31 100 route folder;
#X obj 31 246 pdcontrol;
#X obj 522 308 pdcontrol;
#X msg 31 214 dir 1;
#X obj 76 191 symbol;
#X obj 31 129 t b a, f 6;
#X obj 31 417 pack s s s f;
#X obj 69 383 unpack s f;
#X msg 117 505 open \$1/\$2/\$3-\$4.wav;
#X obj 147 278 bng 25 250 50 0 empty empty empty 17 7 0 10 #e4e4e4 #000000 #373737;
#X obj 267 227 t b b b b;
#X connect 1 0 5 0;
#X connect 2 0 4 0;
#X connect 3 0 0 0;
#X connect 3 1 18 0;
#X connect 4 0 6 0;
#X connect 4 0 25 0;
#X connect 5 0 4 0;
#X connect 5 1 4 1;
#X connect 6 0 7 0;
#X connect 8 0 9 0;
#X connect 9 0 28 0;
#X connect 9 1 11 0;
#X connect 10 0 0 0;
#X connect 11 0 0 0;
#X connect 13 0 14 0;
#X connect 14 0 12 0;
#X connect 15 0 17 0;
#X connect 15 0 16 0;
#X connect 16 0 1 0;
#X connect 17 0 2 0;
#X connect 18 0 23 0;
#X connect 19 0 24 0;
#X connect 21 0 19 0;
#X connect 22 0 24 1;
#X connect 23 0 21 0;
#X connect 23 1 22 0;
#X connect 24 0 26 0;
#X connect 25 0 24 2;
#X connect 25 1 24 3;
#X connect 26 0 0 0;
#X connect 27 0 24 0;
#X connect 28 1 10 0;
#X connect 28 2 4 0;
#X connect 28 3 24 0;
#X coords 0 0 1 1 145 64 2 248 98;
