#N canvas 827 239 527 327 12;
#X declare -lib pd-neimog;
#X obj 472 314 file glob;
#X obj 533 154 declare -lib pd-neimog;
#X msg 469 230 dir;
#X obj 472 258 pdcontrol;
#X msg 472 287 symbol \$1/../Resources/Audios/*.wav;
#X obj 382 160 loadbang;
#X obj 382 187 t b b, f 10;
#X msg 383 230 0;
#X obj 398 314 int;
#X obj 398 343 + 1;
#X obj 398 372 nbx 4 18 -1e+37 1e+37 0 0 empty empty empty 0 -8 0 10 #e4e4e4 #373737 #373737 0 256;
#X obj 472 345 t b a;
#X obj 467 165 bng 25 250 50 0 empty empty empty 17 7 0 10 #e4e4e4 #000000 #373737;
#X obj 522 384 file normalize;
#X obj 129 419 + 0, f 10;
#X obj 129 448 nbx 4 18 -1e+37 1e+37 0 0 empty empty empty 0 -8 0 10 #e4e4e4 #373737 #373737 0 256;
#X obj 398 432 expr if($f1 > $f2 - 3 && $f2 < $f1 \, 1 \, 0);
#X obj 129 475 t b f;
#X obj 398 461 sel 1;
#X obj 398 488 symbol;
#X obj 382 397 t f f;
#X obj 441 616 s;
#X obj 398 522 file splitname;
#X obj 597 517 unpack s s;
#X obj 287 534 \$0;
#X obj 344 488 t b f;
#X obj 314 587 pack f f;
#X msg 582 562 set \$1;
#X obj 46 6 bng 28 250 50 0 \$0-next empty empty 17 7 0 10 #dedede #000000 #373737;
#X obj 12 6 bng 28 250 50 0 \$0-prev empty empty 17 7 0 10 #dedede #000000 #373737;
#X text 10 8 <<, f 4;
#X msg 118 256 -4;
#X msg 157 256 4;
#X obj 344 444 % 4;
#X text 45 9 >>, f 4;
#X obj 209 173 r \$0-next;
#X obj 120 173 r \$0-prev;
#X msg 211 252 set;
#X msg 314 616 symbol \$1-m\$2;
#X obj 209 202 t b b;
#X obj 120 211 t b b;
#X obj 128 574 pdcontrol;
#X obj 128 517 loadbang;
#X msg 125 545 dir;
#X msg 128 604 symbol \$1/../Resources/Audios/;
#X obj 128 635 file normalize;
#X obj 24 698 soundfiler;
#X obj 24 511 pack s s \$0;
#X msg 24 663 read -resize \$2/\$1 \$3-array;
#X obj 325 676 tabplay~ \$0-array;
#X obj 532 657 array define \$0-array;
#X obj 325 758 outlet~;
#X listbox 10 41 11 0 0 0 - \$0-m1 play-\$0 12;
#X obj 93 41 bng 18 250 50 0 \$0-m1 empty empty 17 7 0 10 #e4e4e4 #000000 #373737;
#X listbox 10 65 11 0 0 0 - \$0-m2 play-\$0 12;
#X obj 93 65 bng 18 250 50 0 \$0-m2 empty empty 17 7 0 10 #e4e4e4 #000000 #373737;
#X listbox 124 41 11 0 0 0 - \$0-m3 play-\$0 12;
#X obj 207 41 bng 18 250 50 0 \$0-m3 empty empty 17 7 0 10 #e4e4e4 #000000 #373737;
#X listbox 124 65 11 0 0 0 - \$0-m4 play-\$0 12;
#X obj 207 65 bng 18 250 50 0 \$0-m3 empty empty 17 7 0 10 #e4e4e4 #000000 #373737;
#X obj 24 170 r play-\$0;
#N canvas 733 172 450 300 (subpatch) 0;
#X obj 159 314 s \$0-m1;
#X obj 233 314 s \$0-m2;
#X obj 164 345 s \$0-m3;
#X obj 238 345 s \$0-m4;
#X obj 211 252 inlet;
#X obj 211 252 inlet;
#X obj 211 252 inlet;
#X obj 211 252 inlet;
#X connect 7 0 0 0;
#X connect 7 0 2 0;
#X connect 7 0 1 0;
#X connect 7 0 3 0;
#X restore 211 287 pd;
#X obj 24 271 t b s;
#X obj 202 333 loadbang;
#X msg 202 362 0;
#X obj 91 6 hsl 132 23 0 10 0 0 empty empty empty -2 -8 0 10 #e4e4e4 #000000 #373737 0 1;
#X obj 325 720 *~;
#X connect 0 0 11 0;
#X connect 2 0 3 0;
#X connect 3 0 4 0;
#X connect 4 0 0 0;
#X connect 5 0 6 0;
#X connect 6 0 7 0;
#X connect 6 1 2 0;
#X connect 7 0 8 1;
#X connect 8 0 9 0;
#X connect 9 0 8 1;
#X connect 9 0 10 0;
#X connect 10 0 20 0;
#X connect 11 0 8 0;
#X connect 11 1 13 0;
#X connect 12 0 6 0;
#X connect 13 0 19 1;
#X connect 14 0 15 0;
#X connect 15 0 14 1;
#X connect 15 0 17 0;
#X connect 16 0 18 0;
#X connect 17 0 12 0;
#X connect 17 1 16 1;
#X connect 18 0 19 0;
#X connect 19 0 22 0;
#X connect 20 0 33 0;
#X connect 20 1 16 0;
#X connect 22 0 23 0;
#X connect 23 1 27 0;
#X connect 24 0 26 0;
#X connect 25 0 24 0;
#X connect 25 1 26 1;
#X connect 26 0 38 0;
#X connect 27 0 21 0;
#X connect 31 0 14 0;
#X connect 32 0 14 0;
#X connect 33 0 25 0;
#X connect 35 0 39 0;
#X connect 36 0 37 0;
#X connect 36 0 40 0;
#X connect 37 0 61 0;
#X connect 37 0 61 1;
#X connect 37 0 61 2;
#X connect 37 0 61 3;
#X connect 38 0 21 1;
#X connect 39 0 32 0;
#X connect 39 1 37 0;
#X connect 40 0 31 0;
#X connect 40 1 37 0;
#X connect 41 0 44 0;
#X connect 42 0 43 0;
#X connect 43 0 41 0;
#X connect 44 0 45 0;
#X connect 45 0 47 1;
#X connect 47 0 48 0;
#X connect 48 0 46 0;
#X connect 49 0 66 0;
#X connect 60 0 62 0;
#X connect 62 0 49 0;
#X connect 62 1 47 0;
#X connect 63 0 64 0;
#X connect 64 0 15 0;
#X connect 65 0 66 1;
#X connect 66 0 51 0;
#X coords 0 0 1 1 226 88 2 7 2;
