#N canvas 827 239 527 327 12;
#N canvas 0 0 450 250 (subpatch) 0;
#X array S 9 float 2;
#X coords 0 1 9 -1 152 89 1;
#X restore 415 316 graph;
#N canvas 0 0 450 250 (subpatch) 0;
#X array X 9 float 2;
#X coords 0 1 9 -1 152 89 1;
#X restore 737 281 graph;
#X obj 415 121 iterate;
#X obj 415 150 t f b, f 12;
#X obj 477 181 int;
#X obj 477 210 + 1;
#X msg 554 121 0;
#X obj 477 239 % 9;
#X obj 737 86 iterate;
#X obj 737 115 t f b, f 12;
#X obj 799 146 int;
#X obj 799 175 + 1;
#X msg 922 86 0;
#X msg 737 57 0.6 0.05 0.05 0.05 0.05 0.05 0.05 0.05 0.05;
#X obj 799 204 % 9;
#X obj 251 121 loop;
#X obj 251 150 t f f;
#X msg 128 57 9;
#N canvas 0 0 450 250 (subpatch) 0;
#X array Result 9 float 2;
#X coords 0 1 9 -1 152 89 1;
#X restore 415 461 graph;
#X obj 415 270 tabwrite S;
#X obj 737 235 tabwrite X;
#X obj 332 205 tabread X;
#X obj 251 205 tabread S;
#X obj 300 294 /;
#X obj 251 234 t f f;
#X obj 300 323 log;
#X obj 251 367 *;
#X obj 251 401 t f b, f 12;
#X obj 313 432 int;
#X obj 313 461 + 1;
#X obj 313 490 % 9;
#X obj 251 521 tabwrite Result;
#X obj 128 234 array sum Result;
#X obj 127 92 t b b;
#X obj 128 263 nbx 8 18 -1e+37 1e+37 0 0 empty empty empty 0 -8 0 10 #191919 #e1e1e1 #e1e1e1 0 256;
#X obj 128 290 print Result;
#X msg 415 57 0.05 0.05 0.6 0.05 0.05 0.05 0.05 0.05 0.05 0.05;
#X text 30 9 Kullback-Leibler Divergence;
#X connect 2 0 3 0;
#X connect 3 0 19 0;
#X connect 3 1 4 0;
#X connect 4 0 5 0;
#X connect 5 0 4 1;
#X connect 5 0 7 0;
#X connect 6 0 4 1;
#X connect 7 0 19 1;
#X connect 8 0 9 0;
#X connect 9 0 20 0;
#X connect 9 1 10 0;
#X connect 10 0 11 0;
#X connect 11 0 10 1;
#X connect 11 0 14 0;
#X connect 12 0 10 1;
#X connect 13 0 8 0;
#X connect 14 0 20 1;
#X connect 15 0 16 0;
#X connect 16 0 22 0;
#X connect 16 1 21 0;
#X connect 17 0 33 0;
#X connect 21 0 23 1;
#X connect 22 0 24 0;
#X connect 23 0 25 0;
#X connect 24 0 26 0;
#X connect 24 1 23 0;
#X connect 25 0 26 1;
#X connect 26 0 27 0;
#X connect 27 0 31 0;
#X connect 27 1 28 0;
#X connect 28 0 29 0;
#X connect 29 0 28 1;
#X connect 29 0 30 0;
#X connect 30 0 31 1;
#X connect 32 0 34 0;
#X connect 33 0 32 0;
#X connect 33 1 15 0;
#X connect 34 0 35 0;
#X connect 36 0 2 0;
