#N canvas 827 239 527 327 12;
#X declare -lib pd-neimog;
#X obj 282 10 declare -lib pd-neimog;
#X obj 8 10 c.midi-in;
#X obj 8 258 sfont~;
#X obj 8 379 dac~;
#X obj 143 249 count;
#X obj 143 321 nbx 4 18 -1e+37 1e+37 0 0 empty empty empty 0 -8 0 10 #e4e4e4 #373737 #373737 0 256;
#X msg 50 201 up \, bang;
#X msg 124 201 down \, bang;
#X msg 143 353 pgm \$1;
#X obj 8 144 route keys pad-2 pad-1 knob-1;
#X obj 259 201 / 127;
#X obj 259 259 + 1;
#X obj 8 321 *~ 1;
#X obj 259 101 nbx 11 34 -1e+37 1e+37 0 0 empty empty empty 0 -8 0 10 #e4e4e4 #373737 #373737 0 256;
#X obj 259 288 nbx 4 18 -1e+37 1e+37 0 0 empty empty empty 0 -8 0 10 #e4e4e4 #373737 #373737 0 256;
#X obj 259 230 * 8;
#X obj 66 353 vu~;
#X obj 71 388 vu 20 120 empty empty -1 -8 0 10 #e4e4e4 #373737 1 0;
#X connect 1 0 9 0;
#X connect 2 0 12 0;
#X connect 4 0 5 0;
#X connect 5 0 8 0;
#X connect 6 0 4 0;
#X connect 7 0 4 0;
#X connect 8 0 2 0;
#X connect 9 0 2 0;
#X connect 9 1 6 0;
#X connect 9 2 7 0;
#X connect 9 3 10 0;
#X connect 10 0 15 0;
#X connect 11 0 12 1;
#X connect 11 0 14 0;
#X connect 12 0 3 0;
#X connect 12 0 3 1;
#X connect 12 0 16 0;
#X connect 13 0 4 0;
#X connect 15 0 11 0;
#X connect 16 0 17 0;
