#N canvas 0 0 943 1005 10;
#X obj 14 5 inlet~;
#X obj 14 371 outlet;
#X obj 197 71 pdcontrol;
#X obj 197 26 loadbang;
#X msg 197 48 args;
#X obj 197 93 unpack f f;
#X obj 14 224 spigot;
#X obj 47 79 loadbang;
#X msg 47 101 1;
#X obj 116 12 inlet;
#X obj 116 130 del 1000 1 msec, f 23;
#X msg 155 58 0;
#X msg 116 152 1;
#X obj 14 305 change;
#X msg 135 79 100;
#X obj 116 34 t b b b;
#X obj 14 56 vu~;
#X obj 14 283 expr if ($f1 < $f2 \, 0 \, 1), f 31;
#X connect 0 0 16 0;
#X connect 2 0 5 0;
#X connect 3 0 4 0;
#X connect 4 0 2 0;
#X connect 5 0 17 1;
#X connect 5 1 10 1;
#X connect 6 0 17 0;
#X connect 7 0 8 0;
#X connect 8 0 6 1;
#X connect 9 0 15 0;
#X connect 10 0 12 0;
#X connect 11 0 6 1;
#X connect 12 0 6 1;
#X connect 13 0 1 0;
#X connect 14 0 17 0;
#X connect 15 0 10 0;
#X connect 15 1 14 0;
#X connect 15 2 11 0;
#X connect 16 0 6 0;
#X connect 17 0 13 0;
